<svg width="200" height="200" viewBox="0 0 200 200" fill="none" xmlns="http://www.w3.org/2000/svg">
<path fill-rule="evenodd" clip-rule="evenodd" d="M36.5084 131.74C89.1819 131.786 131.948 89.0514 131.948 36.3153C131.766 27.5866 130.357 18.8579 127.767 10.4928C126.494 6.12847 129.039 1.58225 133.448 0.309315C135.356 -0.23623 137.447 -0.0543792 139.219 0.809401V0.813945C191.529 24.8634 214.48 86.7828 190.484 139.155C166.442 191.528 104.543 214.486 52.1878 190.482C29.4186 180.071 11.1942 161.795 0.832209 139.064C-1.16748 134.973 0.559522 130.017 4.69523 128.062C6.46768 127.199 8.55827 127.017 10.5125 127.608C18.8748 130.29 27.5553 131.745 36.3721 131.972L36.5084 131.74Z" fill="#CA8E1B"/>
<path fill-rule="evenodd" clip-rule="evenodd" d="M78.4072 20.452L70.1435 21.9521C67.3251 22.4522 65.133 24.5524 64.5937 27.2526L63.0106 35.1533C62.7844 36.2368 61.6884 36.9535 60.5401 36.7535C59.6877 36.5868 59.0266 35.9534 58.8526 35.1367L57.2694 27.2193C56.7301 24.519 54.5381 22.4188 51.7197 21.9021L43.456 20.3853C42.3077 20.1686 41.5597 19.1185 41.7684 18.0184C41.925 17.2017 42.5861 16.5683 43.4386 16.4016L51.6849 14.8848C54.4859 14.3681 56.6779 12.2679 57.2172 9.56766L58.783 1.65027C58.9918 0.550172 60.0878 -0.16656 61.236 0.0334579C62.0711 0.183472 62.7322 0.816863 62.9062 1.6336L64.4719 9.53432C64.9939 12.2179 67.1859 14.3181 70.0043 14.8348L78.2506 16.3349C79.3814 16.535 80.1295 17.5851 79.9208 18.6852C79.7468 19.4852 79.0857 20.1186 78.2332 20.2853L78.4072 20.452ZM48.7969 46.8044C48.7969 49.5546 46.4483 51.8048 43.5777 51.8048C40.6898 51.8048 38.3586 49.5546 38.3586 46.8044C38.3586 44.0375 40.6898 41.8039 43.5777 41.8039C46.4483 41.8039 48.7969 44.0375 48.7969 46.8044ZM26.1804 16.8017C24.2493 16.8017 22.701 15.3015 22.701 13.468C22.701 11.6178 24.2493 10.1344 26.1804 10.1344C28.0941 10.1344 29.6599 11.6178 29.6599 13.468C29.6599 15.3015 28.0941 16.785 26.1804 16.8017ZM27.9202 36.8035V36.8018C27.9202 37.5019 27.3982 38.1019 26.6675 38.2353L20.6481 39.3187H20.6463C18.5934 39.6854 16.9929 41.2189 16.6102 43.1691L15.4619 48.9196H15.4602C15.2862 49.703 14.4859 50.2197 13.6683 50.0697C13.042 49.953 12.5548 49.4863 12.4505 48.9029L11.3022 43.1357H11.3005C10.9004 41.1689 9.2998 39.6354 7.26431 39.2687L1.24483 38.1686C0.409763 38.0019 -0.129554 37.2352 0.0270215 36.4518C0.131405 35.8517 0.618531 35.385 1.22744 35.285L7.22951 34.1849C9.265 33.8015 10.8656 32.2681 11.2483 30.3179L12.3791 24.5507C12.5357 23.7506 13.336 23.2339 14.1537 23.3839C14.7626 23.4839 15.2497 23.9506 15.3541 24.534L16.4849 30.2846C16.8676 32.2347 18.4682 33.7682 20.5037 34.1349L26.5058 35.2183L26.504 35.2167C27.2173 35.3333 27.7392 35.9501 27.7392 36.6501L27.9202 36.8035ZM22.6836 66.8062C24.5973 66.8062 26.163 68.2897 26.163 70.1398C26.163 71.9734 24.5973 73.4735 22.6836 73.4735C20.7525 73.4735 19.2041 71.9734 19.2041 70.1398C19.1867 68.2897 20.7525 66.8062 22.6836 66.8062C22.6836 66.8062 22.6836 66.8045 22.6836 66.8062ZM53.4942 65.3561L59.4963 64.256C61.5318 63.8726 63.1323 62.3391 63.5151 60.389L64.6459 54.6218C64.8025 53.8217 65.6028 53.305 66.4204 53.455C67.0293 53.555 67.5165 54.0217 67.6209 54.6051L68.7517 60.3556C69.1344 62.3058 70.735 63.8393 72.7705 64.206L78.7725 65.2894C79.5902 65.4394 80.1295 66.2062 79.9729 66.9896C79.8512 67.573 79.364 68.0397 78.7551 68.1397L72.7357 69.2231C70.6828 69.5898 69.0822 71.1233 68.6995 73.0735L67.5513 78.824C67.3773 79.6074 66.577 80.1241 65.7593 79.9741C65.133 79.8574 64.6459 79.3907 64.5415 78.8073L63.3933 73.0401L63.3916 73.0385C62.9914 71.0716 61.3909 69.5381 59.3554 69.1714L53.3359 68.0713C52.5008 67.9046 51.9615 67.1379 52.1181 66.3545C52.2225 65.7545 52.7096 65.2877 53.3185 65.1877L53.4942 65.3561Z" fill="#CA8E1B"/>
</svg>
